<?xml version="1.0" encoding="utf-8"?>
<!-- Generator: Adobe Illustrator 21.0.2, SVG Export Plug-In . SVG Version: 6.00 Build 0)  -->
<svg version="1.1" id="Layer_1" xmlns="http://www.w3.org/2000/svg" xmlns:xlink="http://www.w3.org/1999/xlink" x="0px" y="0px"
	 viewBox="0 0 856 242" style="enable-background:new 0 0 856 242;" xml:space="preserve">
<style type="text/css">
	.st0{fill:none;}
</style>
<g>
	<g>
		<rect x="263.8" y="10.5" width="118.5" height="222.1"/>
		<path d="M764.2,10.5H742h-96.3v222.1h118.5V188h0.1c49,0,88.8-39.7,88.8-88.8C852.9,50.2,813.2,10.5,764.2,10.5z"/>
		<polygon points="121.3,10.5 239.8,232.5 2.9,232.5 		"/>
		<g>
			<path d="M524,5.3c-63.9,0-115.7,51.8-115.7,115.7c0,63.9,51.8,115.7,115.7,115.7c37.3,0,70.5-17.7,91.6-45.1V50.4
				C594.5,23,561.3,5.3,524,5.3z"/>
		</g>
	</g>
	<rect x="-21.2" y="-14.6" class="st0" width="24.1" height="271.2"/>
	<rect x="852.9" y="-14.6" class="st0" width="24.1" height="271.2"/>
	
		<rect x="415.9" y="-204.5" transform="matrix(4.459437e-11 1 -1 4.459437e-11 672.486 -183.3344)" class="st0" width="24.1" height="898.2"/>
	
		<rect x="416" y="-451.7" transform="matrix(4.501092e-11 1 -1 4.501092e-11 425.4919 -430.6436)" class="st0" width="24.1" height="898.2"/>
</g>
</svg>
